PathFileType	4	(X/Y/Z)	 1.9Hzlow3min.trc
DataRate	CameraRate	NumFrames	NumMarkers	Units	OrigDataRate	OrigDataStartFrame	OrigNumFrames
200	200	8	43	m	200	376	1000
Frame#	Time	C7			LSH			RSH			MAN			RASI			LASI			HIPR			HIPL			RPSI			LPSI			COX			RTHI1			RTHI2			RTHI3			RTHI4			RLKN			RMKN			RSHA1			RSHA2			RSHA3			RSHA4			RLMAL			RMMAL			RHEEL			RMET5			RMET1			RTOE			LTHI1			LTHI2			LTHI3			LTHI4			LLKN			LMKN			LSHA1			LSHA2			LSHA3			LSHA4			LLMAL			LMMAL			LHEEL			LMET5			LMET1			LTOE			
		X1	Y1	Z1	X2	Y2	Z2	X3	Y3	Z3	X4	Y4	Z4	X5	Y5	Z5	X6	Y6	Z6	X7	Y7	Z7	X8	Y8	Z8	X9	Y9	Z9	X10	Y10	Z10	X11	Y11	Z11	X12	Y12	Z12	X13	Y13	Z13	X14	Y14	Z14	X15	Y15	Z15	X16	Y16	Z16	X17	Y17	Z17	X18	Y18	Z18	X19	Y19	Z19	X20	Y20	Z20	X21	Y21	Z21	X22	Y22	Z22	X23	Y23	Z23	X24	Y24	Z24	X25	Y25	Z25	X26	Y26	Z26	X27	Y27	Z27	X28	Y28	Z28	X29	Y29	Z29	X30	Y30	Z30	X31	Y31	Z31	X32	Y32	Z32	X33	Y33	Z33	X34	Y34	Z34	X35	Y35	Z35	X36	Y36	Z36	X37	Y37	Z37	X38	Y38	Z38	X39	Y39	Z39	X40	Y40	Z40	X41	Y41	Z41	X42	Y42	Z42	X43	Y43	Z43	
376	1.8800	-0.218312	1.418912	-0.558412	-0.155812	1.382014	-0.767787	-0.092126	1.369925	-0.378269	-0.081686	1.345866	-0.580155	-0.072012	0.898283	-0.450526	-0.103052	0.892911	-0.708210	-0.163845	0.943126	-0.402922	-0.187777	0.926858	-0.733446	-0.264622	0.942426	-0.507102	-0.275641	0.937455	-0.598601	-0.273197	0.940341	-0.553143	-0.122593	0.651670	-0.375512	-0.099216	0.596466	-0.376183	-0.038340	0.617767	-0.371548	-0.054060	0.677537	-0.370250	-0.043605	0.406846	-0.391854	-0.018801	0.387294	-0.505412	-0.173203	0.268939	-0.376466	-0.199363	0.236071	-0.385179	-0.128552	0.240242	-0.379657	-0.147313	0.205139	-0.383974	-0.294106	0.092882	-0.413749	-0.260898	0.077202	-0.495249	-0.344954	0.081046	-0.476379	-0.209799	0.032800	-0.361716	-0.146002	0.041958	-0.433285	-0.123086	0.033169	-0.433230	-0.151599	0.659914	-0.769221	-0.127150	0.603702	-0.775060	-0.067553	0.624511	-0.790541	-0.084775	0.681936	-0.786832	-0.051318	0.410769	-0.778780	-0.020667	0.396885	-0.667474	-0.182938	0.273922	-0.775079	-0.205103	0.241662	-0.764938	-0.152820	0.210356	-0.770150	-0.135411	0.249369	-0.780390	-0.288358	0.090512	-0.737022	-0.246417	0.081012	-0.659181	-0.336890	0.083160	-0.670925	-0.205007	0.030752	-0.788432	-0.141591	0.038823	-0.716148	-0.116069	0.032450	-0.728768	
377	1.8850	-0.217384	1.415244	-0.558477	-0.155036	1.377571	-0.767961	-0.091288	1.364920	-0.378386	-0.080994	1.341333	-0.580311	-0.073144	0.893670	-0.449349	-0.103945	0.887439	-0.709590	-0.166710	0.938102	-0.402446	-0.190108	0.921096	-0.733587	-0.265885	0.938608	-0.507473	-0.276647	0.933700	-0.598584	-0.274294	0.936707	-0.553366	-0.122798	0.647891	-0.375746	-0.099025	0.592848	-0.376440	-0.038328	0.614591	-0.371297	-0.054474	0.674231	-0.369925	-0.041623	0.404004	-0.392047	-0.016118	0.384681	-0.505533	-0.172254	0.267482	-0.377392	-0.198638	0.234879	-0.386102	-0.127471	0.238265	-0.380460	-0.146647	0.203426	-0.384707	-0.294010	0.092119	-0.414935	-0.260518	0.076026	-0.496314	-0.344797	0.080001	-0.477921	-0.210033	0.032999	-0.362197	-0.145908	0.041884	-0.433486	-0.122988	0.033170	-0.433266	-0.151451	0.656263	-0.768945	-0.126567	0.600245	-0.774834	-0.067190	0.621526	-0.790464	-0.084852	0.678824	-0.786722	-0.048955	0.408299	-0.778733	-0.017694	0.394466	-0.667631	-0.181405	0.272395	-0.774649	-0.203805	0.240296	-0.764440	-0.151772	0.208574	-0.769756	-0.134085	0.247460	-0.780034	-0.288176	0.089883	-0.736223	-0.246072	0.079973	-0.658488	-0.336685	0.082308	-0.669939	-0.205161	0.030886	-0.788185	-0.141465	0.038783	-0.716088	-0.115955	0.032456	-0.728785	
378	1.8900	-0.216570	1.411984	-0.558538	-0.154310	1.373680	-0.768115	-0.090514	1.360495	-0.378527	-0.080386	1.337360	-0.580446	-0.074260	0.889643	-0.448235	-0.104659	0.882922	-0.710823	-0.169195	0.933877	-0.402026	-0.192036	0.916548	-0.733649	-0.266961	0.935352	-0.507727	-0.277481	0.930530	-0.598672	-0.275259	0.933534	-0.553558	-0.123023	0.644478	-0.375996	-0.098885	0.589578	-0.376695	-0.038356	0.611722	-0.371091	-0.054877	0.671254	-0.369660	-0.039726	0.401472	-0.392202	-0.013692	0.382325	-0.505601	-0.171309	0.266275	-0.378121	-0.197943	0.233943	-0.386774	-0.126503	0.236602	-0.381111	-0.145982	0.201952	-0.385302	-0.293911	0.091476	-0.415869	-0.260243	0.075035	-0.497120	-0.344676	0.079107	-0.479035	-0.210205	0.033166	-0.362552	-0.145843	0.041834	-0.433641	-0.122910	0.033173	-0.433290	-0.151323	0.653057	-0.768698	-0.126052	0.597221	-0.774648	-0.066873	0.618911	-0.790388	-0.084922	0.676101	-0.786617	-0.046862	0.406219	-0.778691	-0.015044	0.392316	-0.667830	-0.180045	0.271095	-0.774380	-0.202656	0.239144	-0.764130	-0.150856	0.207046	-0.769501	-0.132915	0.245809	-0.779806	-0.288033	0.089327	-0.735691	-0.245853	0.079105	-0.658009	-0.336561	0.081612	-0.669287	-0.205299	0.030996	-0.788048	-0.141391	0.038761	-0.716062	-0.115875	0.032459	-0.728809	
379	1.8950	-0.215875	1.409157	-0.558601	-0.153647	1.370363	-0.768248	-0.089826	1.356682	-0.378671	-0.079838	1.333961	-0.580557	-0.075325	0.886218	-0.447262	-0.105161	0.879451	-0.711726	-0.171198	0.930492	-0.401668	-0.193390	0.913340	-0.733637	-0.267851	0.932614	-0.507880	-0.278143	0.927902	-0.598817	-0.276066	0.930831	-0.553727	-0.123282	0.641452	-0.376254	-0.098822	0.586683	-0.376949	-0.038446	0.609196	-0.370913	-0.055270	0.668636	-0.369455	-0.037969	0.399252	-0.392305	-0.011606	0.380249	-0.505627	-0.170370	0.265247	-0.378629	-0.197242	0.233136	-0.387250	-0.125628	0.235176	-0.381607	-0.145377	0.200726	-0.385716	-0.293824	0.090926	-0.416519	-0.260080	0.074222	-0.497677	-0.344628	0.078352	-0.479771	-0.210333	0.033285	-0.362770	-0.145813	0.041804	-0.433746	-0.122856	0.033181	-0.433295	-0.151199	0.650349	-0.768492	-0.125622	0.594664	-0.774477	-0.066612	0.616674	-0.790320	-0.084959	0.673767	-0.786541	-0.045086	0.404453	-0.778663	-0.012847	0.390433	-0.668032	-0.178889	0.269982	-0.774252	-0.201690	0.238179	-0.764005	-0.150084	0.205766	-0.769378	-0.131916	0.244413	-0.779698	-0.287943	0.088833	-0.735412	-0.245772	0.078359	-0.657734	-0.336536	0.081023	-0.668945	-0.205425	0.031081	-0.788022	-0.141374	0.038757	-0.716069	-0.115835	0.032458	-0.728846	
380	1.9000	-0.215301	1.406804	-0.558661	-0.153063	1.367642	-0.768365	-0.089228	1.353494	-0.378813	-0.079342	1.331166	-0.580658	-0.076300	0.883417	-0.446480	-0.105430	0.877043	-0.712155	-0.172682	0.927931	-0.401381	-0.194067	0.911441	-0.733558	-0.268562	0.930383	-0.507966	-0.278633	0.925801	-0.598968	-0.276703	0.928623	-0.553861	-0.123597	0.638854	-0.376515	-0.098852	0.584209	-0.377204	-0.038613	0.607030	-0.370755	-0.055720	0.666387	-0.369272	-0.036412	0.397336	-0.392365	-0.009937	0.378479	-0.505621	-0.169480	0.264383	-0.378904	-0.196550	0.232413	-0.387537	-0.124870	0.233936	-0.381979	-0.144861	0.199723	-0.385978	-0.293772	0.090423	-0.416932	-0.260030	0.073554	-0.498015	-0.344653	0.077714	-0.480184	-0.210424	0.033359	-0.362865	-0.145814	0.041788	-0.433797	-0.122832	0.033188	-0.433284	-0.151089	0.648172	-0.768327	-0.125297	0.592607	-0.774332	-0.066402	0.614827	-0.790274	-0.084963	0.671850	-0.786499	-0.043677	0.402955	-0.778661	-0.011197	0.388839	-0.668209	-0.177958	0.269038	-0.774263	-0.200924	0.237365	-0.764037	-0.149474	0.204693	-0.769364	-0.131103	0.243261	-0.779695	-0.287906	0.088394	-0.735349	-0.245816	0.077744	-0.657632	-0.336609	0.080541	-0.668888	-0.205543	0.031140	-0.788093	-0.141406	0.038768	-0.716107	-0.115829	0.032455	-0.728895	
381	1.9050	-0.214839	1.404966	-0.558719	-0.152561	1.365535	-0.768470	-0.088738	1.350956	-0.378936	-0.078893	1.328992	-0.580748	-0.077145	0.881256	-0.445893	-0.105476	0.875629	-0.712047	-0.173679	0.926129	-0.401159	-0.194081	0.910662	-0.733421	-0.269098	0.928661	-0.508001	-0.278956	0.924224	-0.599117	-0.277166	0.926930	-0.553947	-0.123973	0.636726	-0.376772	-0.098997	0.582194	-0.377449	-0.038874	0.605249	-0.370614	-0.056227	0.664535	-0.369104	-0.035123	0.395762	-0.392377	-0.008715	0.377030	-0.505601	-0.168664	0.263618	-0.378991	-0.195882	0.231712	-0.387687	-0.124251	0.232853	-0.382249	-0.144448	0.198856	-0.386077	-0.293728	0.089956	-0.417079	-0.260077	0.073020	-0.498175	-0.344739	0.077192	-0.480337	-0.210490	0.033385	-0.362859	-0.145849	0.041780	-0.433807	-0.122833	0.033197	-0.433256	-0.150998	0.646570	-0.768215	-0.125086	0.591055	-0.774204	-0.066256	0.613412	-0.790254	-0.084949	0.670388	-0.786483	-0.042669	0.401716	-0.778685	-0.010146	0.387555	-0.668339	-0.177275	0.268239	-0.774393	-0.200365	0.236670	-0.764199	-0.149029	0.203808	-0.769426	-0.130497	0.242310	-0.779774	-0.287923	0.087994	-0.735443	-0.245946	0.077258	-0.657673	-0.336757	0.080137	-0.669032	-0.205648	0.031174	-0.788235	-0.141475	0.038791	-0.716170	-0.115851	0.032448	-0.728957	
382	1.9100	-0.214477	1.403659	-0.558769	-0.152153	1.364053	-0.768568	-0.088356	1.349077	-0.379030	-0.078491	1.327459	-0.580825	-0.077835	0.879739	-0.445471	-0.105319	0.875087	-0.711441	-0.174277	0.924968	-0.400993	-0.193546	0.910732	-0.733234	-0.269468	0.927456	-0.507998	-0.279119	0.923176	-0.599251	-0.277460	0.925757	-0.553994	-0.124419	0.635108	-0.377017	-0.099269	0.580666	-0.377683	-0.039242	0.603878	-0.370475	-0.056782	0.663112	-0.368944	-0.034196	0.394529	-0.392353	-0.007960	0.375935	-0.505563	-0.167962	0.262928	-0.378928	-0.195262	0.231036	-0.387756	-0.123738	0.231925	-0.382440	-0.144114	0.198124	-0.386068	-0.293688	0.089557	-0.416993	-0.260185	0.072607	-0.498203	-0.344865	0.076757	-0.480296	-0.210545	0.033371	-0.362782	-0.145907	0.041776	-0.433786	-0.122854	0.033209	-0.433216	-0.150945	0.645548	-0.768143	-0.124998	0.590035	-0.774109	-0.066181	0.612440	-0.790262	-0.084937	0.669406	-0.786481	-0.042078	0.400763	-0.778749	-0.009683	0.386601	-0.668429	-0.176858	0.267563	-0.774611	-0.200019	0.236061	-0.764430	-0.148745	0.203094	-0.769535	-0.130111	0.241554	-0.779911	-0.287991	0.087648	-0.735631	-0.246128	0.076890	-0.657822	-0.336949	0.079807	-0.669293	-0.205741	0.031185	-0.788420	-0.141568	0.038824	-0.716251	-0.115890	0.032442	-0.729025	
383	1.9150	-0.214206	1.402915	-0.558814	-0.151847	1.363207	-0.768663	-0.088087	1.347871	-0.379086	-0.078145	1.326584	-0.580883	-0.078353	0.878877	-0.445160	-0.104979	0.875277	-0.710449	-0.174583	0.924345	-0.400861	-0.192621	0.911365	-0.733009	-0.269681	0.926778	-0.507975	-0.279128	0.922661	-0.599375	-0.277593	0.925128	-0.554016	-0.124934	0.634026	-0.377249	-0.099672	0.579656	-0.377898	-0.039721	0.602954	-0.370331	-0.057373	0.662149	-0.368785	-0.033662	0.393694	-0.392284	-0.007641	0.375216	-0.505509	-0.167432	0.262331	-0.378754	-0.194749	0.230400	-0.387748	-0.123320	0.231160	-0.382587	-0.143923	0.197576	-0.385954	-0.293638	0.089281	-0.416710	-0.260326	0.072327	-0.498150	-0.345014	0.076439	-0.480164	-0.210593	0.033326	-0.362665	-0.145974	0.041773	-0.433748	-0.122884	0.033223	-0.433168	-0.150946	0.645102	-0.768098	-0.125033	0.589564	-0.774055	-0.066202	0.611941	-0.790286	-0.084944	0.668919	-0.786487	-0.041911	0.400145	-0.778854	-0.009749	0.386011	-0.668497	-0.176711	0.267009	-0.774858	-0.199890	0.235557	-0.764686	-0.148623	0.202572	-0.769660	-0.129950	0.241021	-0.780075	-0.288091	0.087365	-0.735851	-0.246315	0.076623	-0.658018	-0.337146	0.079550	-0.669584	-0.205826	0.031178	-0.788617	-0.141667	0.038863	-0.716342	-0.115936	0.032438	-0.729097	
